<svg width="56" height="53" viewBox="0 0 56 53" fill="none" xmlns="http://www.w3.org/2000/svg">
<mask id="path-1-inside-1_25_231" fill="white">
<path d="M54.0701 47.3004C54.0701 49.4342 52.2305 51.1744 49.9694 51.1744H6.02786C3.76947 51.1744 1.93264 49.4342 1.93264 47.3004V23.6036C1.93264 22.3244 3.03583 21.2808 4.38813 21.2808H16.9284C17.1939 21.2808 17.443 21.3455 17.6921 21.4232C17.8044 21.4569 17.9057 21.5009 18.0097 21.5449C18.2451 21.6589 18.475 21.7832 18.6667 21.9593L23.2492 26.2967C24.0677 27.0684 25.1927 27.5138 26.3534 27.5138H54.0701V47.3004ZM42.2224 18.5126H32.5674C32.0336 18.5126 31.6039 18.9217 31.6039 19.4267C31.6039 19.9316 32.0336 20.3382 32.5674 20.3382H42.2224C42.759 20.3382 43.1887 19.9316 43.1887 19.4267C43.1887 18.9217 42.759 18.5126 42.2224 18.5126ZM22.9124 14.7137H42.2224C42.759 14.7137 43.1887 14.3046 43.1887 13.7996C43.1887 13.2947 42.759 12.8881 42.2224 12.8881H22.9124C22.3786 12.8881 21.9461 13.2947 21.9461 13.7996C21.9461 14.3046 22.3786 14.7137 22.9124 14.7137ZM22.9124 9.00122H42.2224C42.759 9.00122 43.1887 8.59208 43.1887 8.08712C43.1887 7.57957 42.759 7.1756 42.2224 7.1756H22.9124C22.3786 7.1756 21.9461 7.57957 21.9461 8.08712C21.9461 8.59208 22.3786 9.00122 22.9124 9.00122ZM18.7926 4.03191C18.7926 2.81482 19.8383 1.82821 21.1194 1.82821H44.0154C45.302 1.82821 46.345 2.81482 46.345 4.03191V25.6856H26.3534C25.7046 25.6856 25.0696 25.437 24.6124 25.0045L20.0299 20.6645C19.9861 20.6282 19.9341 20.5997 19.893 20.5635C19.7452 20.434 19.5974 20.3097 19.4304 20.2061C19.2497 20.0844 19.0554 19.9886 18.8583 19.8954C18.8337 19.885 18.8145 19.8695 18.7926 19.8591V4.03191ZM52.4167 19.4552H50.8536C50.3198 19.4552 49.89 19.8617 49.89 20.3667C49.89 20.8716 50.3198 21.2808 50.8536 21.2808H52.4167C53.3283 21.2808 54.0701 21.9826 54.0701 22.8449V25.6856H48.2749V4.03191C48.2749 1.80491 46.3642 0 44.0154 0H21.1194C18.7734 0 16.8627 1.80491 16.8627 4.03191V19.4552H4.38813C1.97096 19.4552 0 21.317 0 23.6036V47.3004C0 50.4415 2.7046 53 6.02786 53H49.9694C53.2954 53 56 50.4415 56 47.3004V22.8449C56 20.9752 54.3931 19.4552 52.4167 19.4552Z"/>
</mask>
<path d="M54.0701 47.3004C54.0701 49.4342 52.2305 51.1744 49.9694 51.1744H6.02786C3.76947 51.1744 1.93264 49.4342 1.93264 47.3004V23.6036C1.93264 22.3244 3.03583 21.2808 4.38813 21.2808H16.9284C17.1939 21.2808 17.443 21.3455 17.6921 21.4232C17.8044 21.4569 17.9057 21.5009 18.0097 21.5449C18.2451 21.6589 18.475 21.7832 18.6667 21.9593L23.2492 26.2967C24.0677 27.0684 25.1927 27.5138 26.3534 27.5138H54.0701V47.3004ZM42.2224 18.5126H32.5674C32.0336 18.5126 31.6039 18.9217 31.6039 19.4267C31.6039 19.9316 32.0336 20.3382 32.5674 20.3382H42.2224C42.759 20.3382 43.1887 19.9316 43.1887 19.4267C43.1887 18.9217 42.759 18.5126 42.2224 18.5126ZM22.9124 14.7137H42.2224C42.759 14.7137 43.1887 14.3046 43.1887 13.7996C43.1887 13.2947 42.759 12.8881 42.2224 12.8881H22.9124C22.3786 12.8881 21.9461 13.2947 21.9461 13.7996C21.9461 14.3046 22.3786 14.7137 22.9124 14.7137ZM22.9124 9.00122H42.2224C42.759 9.00122 43.1887 8.59208 43.1887 8.08712C43.1887 7.57957 42.759 7.1756 42.2224 7.1756H22.9124C22.3786 7.1756 21.9461 7.57957 21.9461 8.08712C21.9461 8.59208 22.3786 9.00122 22.9124 9.00122ZM18.7926 4.03191C18.7926 2.81482 19.8383 1.82821 21.1194 1.82821H44.0154C45.302 1.82821 46.345 2.81482 46.345 4.03191V25.6856H26.3534C25.7046 25.6856 25.0696 25.437 24.6124 25.0045L20.0299 20.6645C19.9861 20.6282 19.9341 20.5997 19.893 20.5635C19.7452 20.434 19.5974 20.3097 19.4304 20.2061C19.2497 20.0844 19.0554 19.9886 18.8583 19.8954C18.8337 19.885 18.8145 19.8695 18.7926 19.8591V4.03191ZM52.4167 19.4552H50.8536C50.3198 19.4552 49.89 19.8617 49.89 20.3667C49.89 20.8716 50.3198 21.2808 50.8536 21.2808H52.4167C53.3283 21.2808 54.0701 21.9826 54.0701 22.8449V25.6856H48.2749V4.03191C48.2749 1.80491 46.3642 0 44.0154 0H21.1194C18.7734 0 16.8627 1.80491 16.8627 4.03191V19.4552H4.38813C1.97096 19.4552 0 21.317 0 23.6036V47.3004C0 50.4415 2.7046 53 6.02786 53H49.9694C53.2954 53 56 50.4415 56 47.3004V22.8449C56 20.9752 54.3931 19.4552 52.4167 19.4552Z" fill="white"/>
<path d="M17.6921 21.4232L14.715 30.9698L14.767 30.986L14.8192 31.0016L17.6921 21.4232ZM18.0097 21.5449L22.3661 12.5437L22.1392 12.4339L21.907 12.3356L18.0097 21.5449ZM18.6667 21.9593L25.5409 14.6967L25.4873 14.646L25.433 14.5961L18.6667 21.9593ZM23.2492 26.2967L16.3749 33.5593L16.3821 33.5661L16.3892 33.5728L23.2492 26.2967ZM54.0701 27.5138H64.0701V17.5138H54.0701V27.5138ZM46.345 25.6856V35.6856H56.345V25.6856H46.345ZM24.6124 25.0045L17.736 32.2651L17.7403 32.2692L24.6124 25.0045ZM20.0299 20.6645L26.9063 13.404L26.6637 13.1742L26.4062 12.9611L20.0299 20.6645ZM19.893 20.5635L26.5116 13.0672L26.4968 13.0541L26.4819 13.0411L19.893 20.5635ZM19.4304 20.2061L13.8434 28.4998L13.9994 28.6049L14.1591 28.704L19.4304 20.2061ZM18.8583 19.8954L23.134 10.8556L22.9359 10.7619L22.734 10.677L18.8583 19.8954ZM18.7926 19.8591H8.79259V26.1915L14.5169 28.899L18.7926 19.8591ZM54.0701 25.6856V35.6856H64.0701V25.6856H54.0701ZM48.2749 25.6856H38.2749V35.6856H48.2749V25.6856ZM16.8627 19.4552V29.4552H26.8627V19.4552H16.8627ZM44.0701 47.3004C44.0701 43.3868 47.2472 41.1744 49.9694 41.1744V61.1744C57.2138 61.1744 64.0701 55.4816 64.0701 47.3004H44.0701ZM49.9694 41.1744H6.02786V61.1744H49.9694V41.1744ZM6.02786 41.1744C8.76614 41.1744 11.9326 43.3995 11.9326 47.3004H-8.06736C-8.06736 55.4689 -1.2272 61.1744 6.02786 61.1744V41.1744ZM11.9326 47.3004V23.6036H-8.06736V47.3004H11.9326ZM11.9326 23.6036C11.9326 28.3633 8.02804 31.2808 4.38813 31.2808V11.2808C-1.95638 11.2808 -8.06736 16.2854 -8.06736 23.6036H11.9326ZM4.38813 31.2808H16.9284V11.2808H4.38813V31.2808ZM16.9284 31.2808C16.2437 31.2808 15.6871 31.1966 15.3126 31.12C14.9596 31.0478 14.7182 30.9708 14.715 30.9698L20.6693 11.8767C20.2158 11.7353 18.7723 11.2808 16.9284 11.2808V31.2808ZM14.8192 31.0016C14.5209 30.9122 14.2936 30.8258 14.1746 30.7787C14.116 30.7555 14.0752 30.7384 14.0672 30.7351C14.0628 30.7332 14.0622 30.733 14.0706 30.7365C14.075 30.7384 14.0792 30.7402 14.0867 30.7434C14.0934 30.7462 14.1025 30.75 14.1124 30.7542L21.907 12.3356C21.8906 12.3287 21.8999 12.3326 21.8709 12.3203C21.8534 12.3129 21.827 12.3018 21.7968 12.2891C21.7369 12.264 21.6443 12.2256 21.5334 12.1817C21.3097 12.0932 20.9756 11.9679 20.5651 11.8448L14.8192 31.0016ZM13.6533 30.5461C13.6485 30.5438 13.596 30.5185 13.5175 30.477C13.4377 30.4349 13.3147 30.3677 13.1639 30.2761C12.8655 30.0949 12.406 29.7871 11.9003 29.3225L25.433 14.5961C24.1028 13.3737 22.7516 12.7303 22.3661 12.5437L13.6533 30.5461ZM11.7924 29.2218L16.3749 33.5593L30.1234 19.0342L25.5409 14.6967L11.7924 29.2218ZM16.3892 33.5728C19.0993 36.1278 22.6922 37.5138 26.3534 37.5138V17.5138C27.6933 17.5138 29.036 18.009 30.1091 19.0206L16.3892 33.5728ZM26.3534 37.5138H54.0701V17.5138H26.3534V37.5138ZM44.0701 27.5138V47.3004H64.0701V27.5138H44.0701ZM42.2224 8.51258H32.5674V28.5126H42.2224V8.51258ZM32.5674 8.51258C27.0035 8.51258 21.6039 12.9187 21.6039 19.4267H41.6039C41.6039 24.9247 37.0638 28.5126 32.5674 28.5126V8.51258ZM21.6039 19.4267C21.6039 25.9706 27.0414 30.3382 32.5674 30.3382V10.3382C37.0258 10.3382 41.6039 13.8927 41.6039 19.4267H21.6039ZM32.5674 30.3382H42.2224V10.3382H32.5674V30.3382ZM42.2224 30.3382C47.7321 30.3382 53.1887 25.9886 53.1887 19.4267H33.1887C33.1887 13.8747 37.7858 10.3382 42.2224 10.3382V30.3382ZM53.1887 19.4267C53.1887 12.9007 47.7701 8.51258 42.2224 8.51258V28.5126C37.7478 28.5126 33.1887 24.9428 33.1887 19.4267H53.1887ZM22.9124 24.7137H42.2224V4.71373H22.9124V24.7137ZM42.2224 24.7137C47.7701 24.7137 53.1887 20.3256 53.1887 13.7996H33.1887C33.1887 8.28356 37.7478 4.71373 42.2224 4.71373V24.7137ZM53.1887 13.7996C53.1887 7.23775 47.7322 2.88811 42.2224 2.88811V22.8881C37.7857 22.8881 33.1887 19.3516 33.1887 13.7996H53.1887ZM42.2224 2.88811H22.9124V22.8881H42.2224V2.88811ZM22.9124 2.88811C17.4244 2.88811 11.9461 7.21986 11.9461 13.7996H31.9461C31.9461 19.3695 27.3329 22.8881 22.9124 22.8881V2.88811ZM11.9461 13.7996C11.9461 20.3435 17.3864 24.7137 22.9124 24.7137V4.71373C27.3708 4.71373 31.9461 8.26563 31.9461 13.7996H11.9461ZM22.9124 19.0012H42.2224V-0.998778H22.9124V19.0012ZM42.2224 19.0012C47.7701 19.0012 53.1887 14.6131 53.1887 8.08712H33.1887C33.1887 2.57105 37.7478 -0.998778 42.2224 -0.998778V19.0012ZM53.1887 8.08712C53.1887 1.50471 47.7131 -2.8244 42.2224 -2.8244V17.1756C37.8048 17.1756 33.1887 13.6544 33.1887 8.08712H53.1887ZM42.2224 -2.8244H22.9124V17.1756H42.2224V-2.8244ZM22.9124 -2.8244C17.4435 -2.8244 11.9461 1.48684 11.9461 8.08712H31.9461C31.9461 13.6723 27.3138 17.1756 22.9124 17.1756V-2.8244ZM11.9461 8.08712C11.9461 14.631 17.3864 19.0012 22.9124 19.0012V-0.998778C27.3708 -0.998778 31.9461 2.55311 31.9461 8.08712H11.9461ZM28.7926 4.03191C28.7926 8.85378 24.8305 11.8282 21.1194 11.8282V-8.17179C14.8461 -8.17179 8.79259 -3.22413 8.79259 4.03191H28.7926ZM21.1194 11.8282H44.0154V-8.17179H21.1194V11.8282ZM44.0154 11.8282C40.3098 11.8282 36.345 8.85375 36.345 4.03191H56.345C56.345 -3.2241 50.2943 -8.17179 44.0154 -8.17179V11.8282ZM36.345 4.03191V25.6856H56.345V4.03191H36.345ZM46.345 15.6856H26.3534V35.6856H46.345V15.6856ZM26.3534 15.6856C28.1757 15.6856 30.0239 16.3582 31.4845 17.7399L17.7403 32.2692C20.1152 34.5157 23.2336 35.6856 26.3534 35.6856V15.6856ZM31.4888 17.744L26.9063 13.404L13.1535 27.925L17.736 32.2651L31.4888 17.744ZM26.4062 12.9611C26.2748 12.8523 26.1562 12.7596 26.0566 12.684C25.9573 12.6087 25.8712 12.5461 25.8056 12.4993C25.7407 12.453 25.6876 12.4161 25.6574 12.3953C25.642 12.3847 25.6293 12.376 25.6227 12.3714C25.6194 12.3692 25.6163 12.3671 25.6152 12.3663C25.6136 12.3652 25.6138 12.3654 25.6144 12.3658C25.6148 12.366 25.6421 12.3847 25.6782 12.41C25.7159 12.4364 25.7761 12.479 25.8498 12.5332C25.9239 12.5877 26.0193 12.6595 26.1289 12.7465C26.2386 12.8337 26.3685 12.9408 26.5116 13.0672L13.2745 28.0598C13.5756 28.3256 13.8364 28.5244 14.0014 28.6458C14.159 28.7616 14.2917 28.852 14.3065 28.8622C14.3309 28.8789 14.3098 28.8645 14.2989 28.857C14.2806 28.8443 14.2392 28.8157 14.186 28.7777C14.0836 28.7046 13.8889 28.5626 13.6536 28.3679L26.4062 12.9611ZM26.4819 13.0411C26.2893 12.8724 25.6179 12.2766 24.7017 11.7083L14.1591 28.704C13.8455 28.5094 13.612 28.334 13.4747 28.2257C13.3467 28.1247 13.2676 28.0539 13.3042 28.0859L26.4819 13.0411ZM25.0174 11.9124C24.1549 11.3314 23.3581 10.9616 23.134 10.8556L14.5826 28.9352C14.6475 28.9659 14.5776 28.9342 14.4647 28.8743C14.3425 28.8095 14.1187 28.6853 13.8434 28.4998L25.0174 11.9124ZM22.734 10.677C23.1231 10.8406 23.4355 11.0015 23.6519 11.1202C23.7599 11.1795 23.8487 11.231 23.9114 11.2679C23.9723 11.3038 24.019 11.3323 24.0339 11.3414C24.0408 11.3456 24.0478 11.3499 24.043 11.347C24.0414 11.346 24.0303 11.3391 24.0167 11.3309C23.9902 11.3147 23.9307 11.2787 23.8549 11.2343C23.7064 11.1475 23.429 10.9899 23.0683 10.8193L14.5169 28.899C14.1671 28.7335 13.9003 28.5817 13.7624 28.5011C13.6918 28.4599 13.6376 28.4269 13.6163 28.414C13.6103 28.4103 13.6056 28.4074 13.6026 28.4056C13.6011 28.4047 13.5999 28.404 13.5991 28.4035C13.5984 28.403 13.5979 28.4027 13.5979 28.4027C13.5957 28.4014 13.6053 28.4073 13.6149 28.4131C13.6475 28.433 13.8137 28.5349 14.0295 28.6534C14.2571 28.7783 14.5812 28.945 14.9826 29.1138L22.734 10.677ZM28.7926 19.8591V4.03191H8.79259V19.8591H28.7926ZM52.4167 9.45517H50.8536V29.4552H52.4167V9.45517ZM50.8536 9.45517C45.3276 9.45517 39.89 13.8228 39.89 20.3667H59.89C59.89 25.9007 55.312 29.4552 50.8536 29.4552V9.45517ZM39.89 20.3667C39.89 26.8747 45.2896 31.2808 50.8536 31.2808V11.2808C55.3499 11.2808 59.89 14.8686 59.89 20.3667H39.89ZM50.8536 31.2808H52.4167V11.2808H50.8536V31.2808ZM52.4167 31.2808C48.336 31.2808 44.0701 28.0215 44.0701 22.8449H64.0701C64.0701 15.9437 58.3205 11.2808 52.4167 11.2808V31.2808ZM44.0701 22.8449V25.6856H64.0701V22.8449H44.0701ZM54.0701 15.6856H48.2749V35.6856H54.0701V15.6856ZM58.2749 25.6856V4.03191H38.2749V25.6856H58.2749ZM58.2749 4.03191C58.2749 -4.23405 51.3564 -10 44.0154 -10V10C41.372 10 38.2749 7.84386 38.2749 4.03191H58.2749ZM44.0154 -10H21.1194V10H44.0154V-10ZM21.1194 -10C13.7769 -10 6.86269 -4.23 6.86269 4.03191H26.8627C26.8627 7.83981 23.7699 10 21.1194 10V-10ZM6.86269 4.03191V19.4552H26.8627V4.03191H6.86269ZM16.8627 9.45517H4.38813V29.4552H16.8627V9.45517ZM4.38813 9.45517C-3.0129 9.45517 -10 15.2702 -10 23.6036H10C10 27.3639 6.95483 29.4552 4.38813 29.4552V9.45517ZM-10 23.6036V47.3004H10V23.6036H-10ZM-10 47.3004C-10 56.4834 -2.28458 63 6.02786 63V43C7.69378 43 10 44.3997 10 47.3004H-10ZM6.02786 63H49.9694V43H6.02786V63ZM49.9694 63C58.2815 63 66 56.4862 66 47.3004H46C46 44.3969 48.3093 43 49.9694 43V63ZM66 47.3004V22.8449H46V47.3004H66ZM66 22.8449C66 14.9363 59.3853 9.45517 52.4167 9.45517V29.4552C49.4009 29.4552 46 27.0142 46 22.8449H66Z" fill="white" mask="url(#path-1-inside-1_25_231)"/>
</svg>
