<svg width="52" height="53" viewBox="0 0 52 53" fill="none" xmlns="http://www.w3.org/2000/svg">
<path d="M30.7796 0C31.1765 1.25093e-05 31.5633 0.126014 31.884 0.359859C32.2048 0.593705 32.4431 0.923325 32.5646 1.30125L34.6271 7.71C35.4933 8.13375 36.3221 8.61 37.1133 9.14625L43.6983 7.72875C44.0866 7.64586 44.4911 7.68834 44.8537 7.85008C45.2163 8.01182 45.5181 8.28447 45.7158 8.62875L50.9133 17.625C51.1118 17.9691 51.1959 18.3673 51.1534 18.7623C51.1109 19.1572 50.9441 19.5285 50.6771 19.8225L46.1583 24.81C46.2241 25.7664 46.2241 26.7261 46.1583 27.6825L50.6771 32.6775C50.9441 32.9715 51.1109 33.3428 51.1534 33.7377C51.1959 34.1327 51.1118 34.5309 50.9133 34.875L45.7158 43.875C45.5176 44.2186 45.2155 44.4905 44.853 44.6515C44.4904 44.8126 44.0862 44.8545 43.6983 44.7713L37.1133 43.3537C36.3258 43.8862 35.4933 44.3663 34.6308 44.79L32.5646 51.1987C32.4431 51.5767 32.2048 51.9063 31.884 52.1401C31.5633 52.374 31.1765 52.5 30.7796 52.5H20.3846C19.9876 52.5 19.6009 52.374 19.2801 52.1401C18.9593 51.9063 18.721 51.5767 18.5996 51.1987L16.5408 44.7937C15.6769 44.3713 14.8436 43.8889 14.0471 43.35L7.46582 44.7713C7.07756 44.8541 6.67302 44.8117 6.31045 44.6499C5.94788 44.4882 5.64601 44.2155 5.44832 43.8713L0.250821 34.875C0.0523506 34.5309 -0.0317155 34.1327 0.0107447 33.7377C0.0532048 33.3428 0.219997 32.9715 0.487071 32.6775L5.00582 27.6825C4.94037 26.7286 4.94037 25.7714 5.00582 24.8175L0.487071 19.8225C0.219997 19.5285 0.0532048 19.1572 0.0107447 18.7623C-0.0317155 18.3673 0.0523506 17.9691 0.250821 17.625L5.44832 8.625C5.64656 8.2814 5.94866 8.00953 6.31119 7.84848C6.67371 7.68744 7.07797 7.64552 7.46582 7.72875L14.0471 9.15C14.8421 8.61375 15.6746 8.13 16.5408 7.70625L18.6033 1.30125C18.7244 0.924542 18.9615 0.595795 19.2808 0.362062C19.6001 0.12833 19.9851 0.00159625 20.3808 0H30.7758H30.7796ZM29.4071 3.75H21.7571L19.6271 10.3762L18.1908 11.0775C17.4848 11.423 16.8032 11.8164 16.1508 12.255L14.8233 13.155L8.01332 11.685L4.18832 18.315L8.85707 23.4825L8.74457 25.0725C8.69069 25.8566 8.69069 26.6434 8.74457 27.4275L8.85707 29.0175L4.18082 34.185L8.00957 40.815L14.8196 39.3488L16.1471 40.245C16.7994 40.6836 17.481 41.077 18.1871 41.4225L19.6233 42.1237L21.7571 48.75H29.4146L31.5521 42.12L32.9846 41.4225C33.6899 41.0778 34.3703 40.6843 35.0208 40.245L36.3446 39.3488L43.1583 40.815L46.9833 34.185L42.3108 29.0175L42.4233 27.4275C42.4774 26.6422 42.4774 25.8541 42.4233 25.0687L42.3108 23.4788L46.9871 18.315L43.1583 11.685L36.3446 13.1475L35.0208 12.255C34.3703 11.8156 33.6899 11.4221 32.9846 11.0775L31.5521 10.38L29.4108 3.75H29.4071ZM25.5821 15C28.5658 15 31.4272 16.1853 33.537 18.295C35.6468 20.4048 36.8321 23.2663 36.8321 26.25C36.8321 29.2337 35.6468 32.0952 33.537 34.205C31.4272 36.3147 28.5658 37.5 25.5821 37.5C22.5984 37.5 19.7369 36.3147 17.6271 34.205C15.5173 32.0952 14.3321 29.2337 14.3321 26.25C14.3321 23.2663 15.5173 20.4048 17.6271 18.295C19.7369 16.1853 22.5984 15 25.5821 15ZM25.5821 18.75C23.5929 18.75 21.6853 19.5402 20.2788 20.9467C18.8722 22.3532 18.0821 24.2609 18.0821 26.25C18.0821 28.2391 18.8722 30.1468 20.2788 31.5533C21.6853 32.9598 23.5929 33.75 25.5821 33.75C27.5712 33.75 29.4788 32.9598 30.8854 31.5533C32.2919 30.1468 33.0821 28.2391 33.0821 26.25C33.0821 24.2609 32.2919 22.3532 30.8854 20.9467C29.4788 19.5402 27.5712 18.75 25.5821 18.75Z" fill="white"/>
</svg>
